<svg width="26" height="24" viewBox="0 0 26 24" fill="none" xmlns="http://www.w3.org/2000/svg">
<path d="M16.2762 17C11.4377 17 7.50132 13.0623 7.5 8.22385C7.50132 6.99736 8.5 6 9.72385 6C9.84967 6 9.97416 6.01059 10.0934 6.03179C10.3556 6.0755 10.6046 6.16424 10.8338 6.29801C10.8669 6.31788 10.8894 6.34967 10.8947 6.38676L11.406 9.60927C11.4126 9.64636 11.4007 9.68477 11.3755 9.71259C11.0934 10.0252 10.7331 10.2503 10.3318 10.3629L10.1384 10.4172L10.2113 10.604C10.8709 12.2834 12.2139 13.6252 13.8947 14.2874L14.0815 14.3616L14.1358 14.1682C14.2483 13.7669 14.4735 13.4066 14.7861 13.1245C14.8086 13.1033 14.8391 13.0927 14.8695 13.0927C14.8762 13.0927 14.8828 13.0927 14.8907 13.094L18.1132 13.6053C18.1517 13.6119 18.1834 13.6331 18.2033 13.6662C18.3358 13.8954 18.4245 14.1457 18.4695 14.408C18.4907 14.5245 18.5 14.6477 18.5 14.7762C18.5 16.0013 17.5026 16.9987 16.2762 17Z" fill="#FDFDFD"/>
<path d="M25.4529 10.9297C25.1881 7.95908 23.8166 5.20329 21.5913 3.17082C19.3525 1.12634 16.4482 0 13.4108 0C6.74429 0 1.32021 5.38345 1.32021 12C1.32021 14.2206 1.93737 16.3839 3.10582 18.2682L0.5 23.9933L8.8432 23.1112C10.294 23.7011 11.8295 24 13.4094 24C13.8249 24 14.2511 23.9786 14.6787 23.9346C15.0552 23.8946 15.4357 23.8358 15.8095 23.7611C21.3923 22.6415 25.4677 17.7238 25.5 12.0641V12C25.5 11.6397 25.4839 11.2794 25.4516 10.931L25.4529 10.9297ZM9.16456 20.5983L4.54858 21.0867L5.92679 18.056L5.65114 17.6891C5.63097 17.6624 5.6108 17.6357 5.58795 17.605C4.39126 15.9649 3.75929 14.0271 3.75929 12.0013C3.75929 6.7193 8.08888 2.42216 13.4108 2.42216C18.3965 2.42216 22.6226 6.28292 23.03 11.2113C23.0515 11.4755 23.0636 11.7411 23.0636 12.0027C23.0636 12.0774 23.0623 12.1508 23.0609 12.2295C22.9587 16.6481 19.8487 20.4008 15.4976 21.3563C15.1655 21.4297 14.8253 21.4858 14.4864 21.5218C14.1342 21.5618 13.7725 21.5818 13.4135 21.5818C12.1348 21.5818 10.8924 21.3363 9.71853 20.8505C9.5881 20.7985 9.46036 20.7424 9.34069 20.6851L9.1659 20.601L9.16456 20.5983Z" fill="#FDFDFD"/>
</svg>
