<svg width="24" height="16" viewBox="0 0 24 16" fill="none" xmlns="http://www.w3.org/2000/svg">
<path d="M22.8252 4.28916C22.6839 2.92867 22.38 1.42472 21.2611 0.634353C20.3945 0.0214426 19.2555 -0.00121614 18.1921 4.24012e-05C15.9443 4.24012e-05 13.6952 0.00382295 11.4474 0.00508149C9.28538 0.00759858 7.12334 0.00885558 4.96131 0.0113727C4.05815 0.0113727 3.18021 -0.0578487 2.34138 0.3323C1.62112 0.667072 1.05728 1.3039 0.717963 2.01246C0.247461 2.9979 0.149077 4.11422 0.092314 5.20412C-0.012382 7.18884 -0.00102941 9.1786 0.123849 11.1621C0.215931 12.6094 0.449286 14.209 1.57067 15.1315C2.56465 15.9483 3.96732 15.9886 5.25647 15.9898C9.34844 15.9936 13.4417 15.9974 17.5349 15.9999C18.0597 16.0012 18.6071 15.9911 19.1419 15.9332C20.194 15.8199 21.1968 15.5191 21.8729 14.7414C22.5553 13.9573 22.7306 12.8661 22.8341 11.8329C23.0863 9.32585 23.0838 6.79492 22.8252 4.28916ZM9.08104 11.5145V4.48549L15.1812 7.99934L9.08104 11.5145Z" fill="white"/>
</svg>
