<svg width="20" height="20" viewBox="0 0 20 20" fill="none" xmlns="http://www.w3.org/2000/svg">
<path d="M20 10.225C20 9.56667 19.9404 8.94167 19.8382 8.33333H10.2171V12.0917H15.7258C15.4789 13.325 14.7552 14.3667 13.6824 15.075V17.575H16.9689C18.8931 15.8333 20 13.2667 20 10.225Z" fill="white"/>
<path d="M10.2171 3.95833C11.7241 3.95833 13.0694 4.46667 14.1337 5.45834L17.0455 2.60833C15.2831 0.991668 12.9757 0 10.2171 0C6.22393 0 2.77565 2.25 1.09834 5.51667L4.48702 8.09167C5.29587 5.71667 7.55215 3.95833 10.2171 3.95833Z" fill="white"/>
<path fill-rule="evenodd" clip-rule="evenodd" d="M10.2171 20C6.22393 20 2.77565 17.75 1.09834 14.4833L4.48702 11.9083C5.29587 14.2833 7.55215 16.0417 10.2171 16.0417C11.5964 16.0417 12.7629 15.675 13.6824 15.075L16.9689 17.575C15.2831 19.1 12.9757 20 10.2171 20ZM4.48702 8.09167V5.51667H1.09834L4.48702 8.09167Z" fill="white"/>
<path d="M1.09834 11.9083H4.48702C4.27416 11.3083 4.16347 10.6667 4.16347 10C4.16347 9.33333 4.28267 8.69167 4.48702 8.09167L1.09834 5.51667C0.400169 6.86667 0 8.38333 0 10C0 11.6167 0.400169 13.1333 1.09834 14.4833V11.9083Z" fill="white"/>
<path d="M4.48702 11.9083H1.09834V14.4833L4.48702 11.9083Z" fill="white"/>
</svg>
