<svg width="72" height="42" viewBox="0 0 72 42" fill="none" xmlns="http://www.w3.org/2000/svg">
<g clip-path="url(#clip0_277_783)">
<path d="M32.8325 0.845989C28.8389 1.06839 25.2901 2.64279 22.6085 5.38359C20.3109 7.73239 18.8581 10.7452 18.4101 14.094C18.3141 14.806 18.2725 15.4636 18.2725 16.2604C18.2725 16.8876 18.2885 17.254 18.3381 17.798C18.7573 22.39 21.1141 26.4652 24.8293 29.022C26.7333 30.3324 28.9765 31.2012 31.3285 31.5404C32.1397 31.6572 32.7573 31.6988 33.6485 31.7004C34.6853 31.7004 35.5157 31.63 36.4565 31.4604C38.4949 31.094 40.4405 30.3068 42.1205 29.1692C43.4997 28.2364 44.7173 27.0652 45.6917 25.734C46.0165 25.2892 46.4325 24.6444 46.6565 24.2332C46.7237 24.11 46.7237 24.1068 46.6949 24.078C46.6661 24.0508 42.4773 20.8652 42.4357 20.8396C42.4245 20.8332 42.3717 20.9004 42.2933 21.022C41.7653 21.8412 41.0757 22.7724 40.5157 23.422C39.1669 24.982 37.3797 25.9868 35.3525 26.3244C34.7301 26.4284 34.3941 26.454 33.6565 26.4524C32.9893 26.4524 32.7573 26.438 32.1925 26.3564C30.4373 26.1068 28.7909 25.3788 27.4469 24.2588C25.9253 22.9916 24.8165 21.2412 24.2741 19.2556C23.7941 17.4988 23.7509 15.5356 24.1541 13.758C24.6885 11.398 25.9829 9.35799 27.8165 7.98359C29.3077 6.86679 31.0469 6.22839 32.9685 6.09399C33.2613 6.07319 34.0917 6.07319 34.3765 6.09399C36.3765 6.23959 38.0869 6.91639 39.5365 8.13879C39.8005 8.36119 40.3493 8.91159 40.5733 9.17719C40.8517 9.50999 41.0677 9.80439 41.9733 11.0908L42.3989 11.694L43.0293 10.5548C45.0245 6.95479 45.3445 6.37559 45.3445 6.35959C45.3445 6.33879 45.0453 5.97719 44.7877 5.68599C44.5205 5.38519 43.9077 4.77879 43.5925 4.50359C42.5973 3.63159 41.5957 2.96119 40.4405 2.38999C38.6757 1.51639 36.8837 1.03159 34.8325 0.868389C34.4517 0.83799 33.2197 0.82519 32.8325 0.845989Z" fill="#024654"/>
<path d="M64.4031 0.945211C64.3855 0.974012 62.0623 5.19161 59.2399 10.318C56.4175 15.4444 53.2783 21.1372 52.2639 22.9708L50.4175 26.3036L51.8879 28.9756L53.3567 31.6476L54.3615 29.8172C54.9151 28.8108 57.6863 23.7676 60.5199 18.6092C63.3535 13.4508 65.6767 9.23161 65.6847 9.23001C65.6911 9.23001 65.6959 14.1948 65.6959 20.262V31.294H68.3999H71.1039V16.094V0.894012H67.7695H64.4351L64.4031 0.945211Z" fill="#024654"/>
<path d="M0.895996 3.86201V6.478H6.032H11.168V18.886V31.294H13.872H16.576V18.886V6.478H18.3904H20.2032L20.248 6.4092C20.3296 6.28601 20.6464 5.86521 20.824 5.64601C22.0576 4.11481 23.5616 2.8556 25.3056 1.894C25.568 1.75001 26.152 1.46041 26.424 1.342C26.5296 1.2956 26.6192 1.25561 26.6224 1.25241C26.6256 1.2492 20.84 1.246 13.7632 1.246H0.895996V3.86201Z" fill="#024654"/>
<path d="M44.5566 10.0828C43.723 11.598 43.0398 12.846 43.0366 12.854C43.0334 12.8668 49.771 25.1436 49.8318 25.2348C49.8494 25.2588 50.0638 24.8812 51.3806 22.502L52.9102 19.742L49.4926 13.5372C47.6142 10.126 46.075 7.33242 46.0734 7.33082C46.0718 7.32922 45.3886 8.56762 44.5566 10.0828Z" fill="#024654"/>
<path d="M23.6258 36.758C22.861 36.8668 22.3442 37.2348 22.2066 37.7708C22.165 37.9356 22.165 38.19 22.2082 38.3564C22.3122 38.7644 22.653 39.0796 23.2002 39.2684C23.4274 39.3484 23.549 39.3772 24.0002 39.462C24.7746 39.6044 25.0754 39.7148 25.2594 39.9244C25.3442 40.0204 25.381 40.1276 25.3794 40.2748C25.3762 40.6076 25.0466 40.8684 24.5218 40.9532C24.2786 40.9916 23.8194 40.9756 23.6162 40.9212C23.2338 40.8204 22.9682 40.606 22.8018 40.262C22.7682 40.1916 22.7362 40.1212 22.7298 40.1052C22.7218 40.0812 22.6914 40.078 22.3842 40.078C21.997 40.078 22.0274 40.0588 22.0802 40.2604C22.2338 40.8428 22.6722 41.3004 23.2738 41.5004C23.5778 41.6012 23.7138 41.6204 24.1362 41.622C24.4738 41.622 24.5426 41.6172 24.701 41.5852C25.5746 41.4092 26.0802 40.9164 26.0802 40.2428C26.0802 39.9148 25.9858 39.6684 25.781 39.4524C25.5938 39.2572 25.3586 39.1196 25.0242 39.0092C24.8114 38.9388 24.6514 38.9036 24.1794 38.8204C23.6946 38.7372 23.5602 38.7052 23.373 38.638C23.0322 38.5148 22.8754 38.3372 22.8738 38.0748C22.8738 37.9708 22.8818 37.9388 22.925 37.8492C23.0818 37.5308 23.4818 37.3756 24.0962 37.3948C24.3746 37.4028 24.5058 37.4268 24.7042 37.5084C24.9426 37.6044 25.1602 37.7884 25.2706 37.9852L25.3314 38.094H25.6818C25.9042 38.094 26.0322 38.0876 26.0322 38.078C26.0322 38.0444 25.9618 37.8572 25.9074 37.75C25.8226 37.5772 25.749 37.4748 25.6034 37.3228C25.3394 37.0492 25.0098 36.8732 24.5794 36.7804C24.3762 36.7372 23.861 36.7244 23.6258 36.758Z" fill="#024654"/>
<path d="M1.52002 39.182V41.566H1.85602H2.19202V40.5836V39.6012L3.02882 39.5932C3.79522 39.5868 3.87522 39.5836 4.00802 39.5532C4.57122 39.4268 4.92962 39.1052 5.07522 38.598C5.10722 38.4876 5.11202 38.4332 5.11202 38.198C5.11202 37.8732 5.09282 37.7836 4.97122 37.534C4.90082 37.3884 4.87202 37.3484 4.74562 37.222C4.57762 37.0556 4.43682 36.9692 4.21282 36.894C3.93762 36.8028 3.86562 36.798 2.63682 36.798H1.52002V39.182ZM3.79042 37.4556C4.01282 37.4908 4.16642 37.574 4.27522 37.718C4.47202 37.9788 4.45282 38.478 4.23522 38.7276C4.20322 38.7644 4.12802 38.8188 4.06882 38.8508C3.87522 38.9516 3.80802 38.958 2.95202 38.958H2.19202V38.198V37.438H2.94082C3.38082 37.438 3.72962 37.4444 3.79042 37.4556Z" fill="#024654"/>
<path d="M5.95215 39.182V41.566H6.28815H6.62415V40.582V39.598L7.07695 39.5996H7.52815L8.29615 40.5836L9.06415 41.566H9.49295H9.92335L9.86895 41.4988C9.84015 41.462 9.48655 41.0172 9.08495 40.51C8.68175 40.0044 8.35215 39.5852 8.35215 39.5804C8.35215 39.5756 8.40495 39.5596 8.46895 39.5468C8.81615 39.4716 9.13775 39.2684 9.31215 39.014C9.38415 38.91 9.47855 38.6988 9.51375 38.566C9.56015 38.3916 9.55695 37.9724 9.50735 37.798C9.35375 37.2556 8.94095 36.9116 8.33615 36.8204C8.21615 36.8028 7.95535 36.798 7.06895 36.798H5.95215V39.182ZM8.32175 37.4572C8.63855 37.5676 8.79535 37.7596 8.83215 38.0764C8.86255 38.3388 8.79535 38.5756 8.64815 38.7324C8.55695 38.83 8.47695 38.878 8.32815 38.9276C8.21775 38.9644 8.20175 38.9644 7.42095 38.9708L6.62415 38.9756V38.198V37.4204L7.43695 37.4268C8.12975 37.4316 8.25935 37.4348 8.32175 37.4572Z" fill="#024654"/>
<path d="M11.1362 39.1676C10.5506 40.4716 10.069 41.5452 10.0674 41.5532C10.0642 41.5612 10.229 41.5644 10.4338 41.5628L10.8082 41.558L11.0402 41.0188L11.2722 40.478H12.5602H13.8498L14.0802 41.0156C14.2082 41.3116 14.3202 41.5564 14.3282 41.5596C14.3378 41.5644 14.5138 41.5644 14.7218 41.5628L15.0978 41.558L14.0322 39.182L12.9666 36.806L12.5826 36.8012L12.2002 36.798L11.1362 39.1676ZM13.0818 38.6908L13.581 39.846L12.5714 39.8508C12.0178 39.8524 11.5602 39.8508 11.557 39.8476C11.5538 39.8444 11.7618 39.3532 12.0226 38.7564C12.2818 38.158 12.509 37.6348 12.5282 37.5916C12.5458 37.5484 12.5666 37.518 12.573 37.5244C12.5794 37.5308 12.8082 38.0556 13.0818 38.6908Z" fill="#024654"/>
<path d="M15.3378 36.8172C15.3458 36.8284 15.749 37.3548 16.2354 37.9868C16.7218 38.6188 17.1202 39.1388 17.1202 39.142C17.1202 39.1452 16.6978 39.6908 16.1826 40.3532L15.2466 41.558L15.6434 41.5628C15.861 41.5644 16.0482 41.5628 16.0578 41.5596C16.0674 41.5564 16.405 41.1196 16.8082 40.5916C17.2114 40.062 17.5458 39.63 17.5506 39.63C17.5554 39.6316 17.8882 40.0604 18.2882 40.5836C18.6882 41.1084 19.0242 41.5436 19.0338 41.5516C19.045 41.5596 19.2226 41.5644 19.4594 41.5628L19.8658 41.558L18.9266 40.334L17.9874 39.11L18.029 39.054C18.053 39.0236 18.4498 38.5116 18.9122 37.918C19.3746 37.3244 19.7586 36.8284 19.7666 36.8172C19.7762 36.8028 19.6914 36.798 19.365 36.798H18.9522L18.2578 37.71C17.8754 38.2124 17.557 38.6172 17.5522 38.6108C17.5458 38.6028 17.2306 38.1932 16.8498 37.6972L16.1586 36.798H15.7426C15.413 36.798 15.3282 36.8028 15.3378 36.8172Z" fill="#024654"/>
<path d="M20.5601 39.182V41.566H20.8961H21.2321V39.182V36.798H20.8961H20.5601V39.182Z" fill="#024654"/>
<path d="M28.4238 36.8716C28.435 36.9116 28.7502 37.9836 29.1214 39.2556L29.7982 41.566H30.2318H30.6654L31.3118 39.6396C31.6686 38.5804 31.963 37.7164 31.9678 37.7196C31.971 37.7244 32.2638 38.59 32.6158 39.6428L33.259 41.558L33.7054 41.5628L34.1534 41.566L34.8478 39.2108C35.2286 37.9148 35.5438 36.8412 35.5486 36.8252C35.555 36.7996 35.5326 36.798 35.1902 36.8012L34.8254 36.806L34.2734 38.7612C33.9678 39.8364 33.7166 40.7196 33.7118 40.7244C33.707 40.7292 33.5566 40.2956 33.3774 39.7612C33.1966 39.2268 32.899 38.342 32.715 37.7932L32.3806 36.798H31.9918H31.6046L30.9438 38.7452C30.5822 39.8172 30.2782 40.7052 30.2718 40.718C30.2558 40.7452 30.3214 40.9724 29.6862 38.6908L29.1598 36.798H28.7806H28.4014L28.4238 36.8716Z" fill="#024654"/>
<path d="M36.3682 39.182V41.566H36.7122H37.0562V39.182V36.798H36.7122H36.3682V39.182Z" fill="#024654"/>
<path d="M38.2881 39.182V41.566H39.8881H41.4881V41.246V40.926H40.2241H38.9601V40.214V39.502H40.1201H41.2801V39.182V38.862H40.1201H38.9601V38.15V37.438H40.2241H41.4881V37.118V36.798H39.8881H38.2881V39.182Z" fill="#024654"/>
<path d="M42.5122 39.182V41.566H42.8402H43.1682V39.6412L43.1698 37.718L43.205 37.7596C43.2242 37.782 43.8562 38.6476 44.6082 39.6828L45.9762 41.5644L46.357 41.566H46.7362V39.182V36.798H46.4002H46.0642V38.6732C46.0642 40.174 46.0594 40.5452 46.045 40.5292C46.0338 40.518 45.4226 39.6764 44.6882 38.6572L43.3522 36.806L42.9314 36.8012L42.5122 36.798V39.182Z" fill="#024654"/>
<path d="M49.8721 39.182V41.566H50.2081H50.5441L50.5473 39.6268L50.5521 37.686L51.6145 39.6188C52.1985 40.6812 52.6817 41.55 52.6865 41.55C52.6913 41.55 53.1761 40.6796 53.7601 39.614L54.8241 37.6796L54.8289 39.622L54.8321 41.566H55.1761H55.5201V39.182V36.798H55.0529L54.5841 36.7996L53.6481 38.502C52.9601 39.7548 52.7073 40.1996 52.6961 40.1836C52.6881 40.1724 52.2625 39.406 51.7537 38.4796L50.8273 36.798H50.3489H49.8721V39.182Z" fill="#024654"/>
<path d="M56.752 39.182V41.566H57.088H57.424V39.182V36.798H57.088H56.752V39.182Z" fill="#024654"/>
<path d="M58.144 37.126V37.454H58.992H59.84V39.51V41.566H60.184H60.528V39.51V37.454H61.384H62.24V37.126V36.798H60.192H58.144V37.126Z" fill="#024654"/>
<path d="M62.4321 37.126V37.454H63.2881H64.1441V39.51V41.566H64.4801H64.8161V39.51V37.454H65.6721H66.5281V37.126V36.798H64.4801H62.4321V37.126Z" fill="#024654"/>
<path d="M67.248 39.182V41.566H68.848H70.448V41.246V40.926H69.184H67.92V40.214V39.502H69.08H70.24V39.182V38.862H69.08H67.92V38.15V37.438H69.184H70.448V37.118V36.798H68.848H67.248V39.182Z" fill="#024654"/>
</g>
<defs>
<clipPath id="clip0_277_783">
<rect width="72" height="41" fill="white" transform="translate(0 0.75)"/>
</clipPath>
</defs>
</svg>
